IKResults
version=1
nRows=11
nColumns=40
inDegrees=yes

Units are S.I. units (second, meters, Newtons, ...)
Angles are in degrees.

endheader
time	pelvis_tilt	pelvis_list	pelvis_rotation	pelvis_tx	pelvis_ty	pelvis_tz	hip_flexion_r	hip_adduction_r	hip_rotation_r	knee_angle_r	knee_angle_r_beta	ankle_angle_r	subtalar_angle_r	mtp_angle_r	hip_flexion_l	hip_adduction_l	hip_rotation_l	knee_angle_l	knee_angle_l_beta	ankle_angle_l	subtalar_angle_l	mtp_angle_l	lumbar_extension	lumbar_bending	lumbar_rotation	arm_flex_r	arm_add_r	arm_rot_r	elbow_flex_r	pro_sup_r	wrist_flex_r	wrist_dev_r	arm_flex_l	arm_add_l	arm_rot_l	elbow_flex_l	pro_sup_l	wrist_flex_l	wrist_dev_l
      0.99000000	     17.44246485	     -4.41782114	      0.88899581	     -0.31473725	      0.94738172	      1.40299869	      3.69452541	     -0.14317625	    -31.85492255	    -14.58509152	     -0.25455787	     -6.95587365	     11.23990145	     -8.84302208	    -24.91842923	      1.70580168	     15.90836805	    -12.86679930	     -0.22456801	     15.38948378	      0.64558955	     -5.36958447	    -24.95933185	      3.02214699	     -3.01898740	     -2.85379005	    -10.18560799	     -0.99612879	     17.38895303	     89.95437384	      0.00000000	      0.00000000	     14.48964858	     11.38350561	     -2.82062501	     33.00713980	     89.95437384	      0.00000000	      0.00000000
      1.00000000	     17.51408400	     -4.71600376	      1.25439553	     -0.30939768	      0.94692348	      1.40289690	      3.60335311	      0.32855355	    -32.95161231	    -13.30398212	     -0.23219829	     -9.16393991	     12.73733724	     -8.93791477	    -25.29772651	      2.18796035	     15.54723742	    -13.00785809	     -0.22702995	     15.70606594	      0.57399933	     -5.48030938	    -25.02027436	      3.53639252	     -3.23808548	     -2.89292283	    -10.17585905	     -1.40413756	     17.33608674	     89.95437384	      0.00000000	      0.00000000	     14.48266254	     11.27799159	     -2.83354246	     33.69013688	     89.95437384	      0.00000000	      0.00000000
      1.01000000	     17.35107800	     -4.60201807	      1.29981565	     -0.30442336	      0.94601542	      1.40276323	      4.14352110	      0.23176270	    -33.06754988	    -13.08144314	     -0.22831425	     -9.19282501	     12.62961047	     -8.87141203	    -25.36203309	      2.11249254	     15.60098594	    -13.20017043	     -0.23038644	     15.66576745	      0.59373583	     -5.43781278	    -24.89074987	      3.54553379	     -3.21797116	     -3.02512951	    -10.23884890	     -1.43488698	     17.37547266	     89.95437384	      0.00000000	      0.00000000	     14.69086525	     11.04954204	     -2.86472370	     34.07466975	     89.95437384	      0.00000000	      0.00000000
      1.02000000	     17.59620359	     -4.96822587	      1.78735692	     -0.29865859	      0.94575344	      1.40275733	      3.71194095	      0.86926646	    -33.82375031	    -11.85223402	     -0.20686051	    -10.46926839	     13.80806224	     -9.44809971	    -25.90430444	      2.77710994	     15.42119253	    -13.41450538	     -0.23412729	     15.73991543	      0.44000897	     -5.67782864	    -25.08458637	      4.15060984	     -3.47438921	     -3.08889186	    -10.19167453	     -1.98497195	     17.31472184	     89.95437384	      0.00000000	      0.00000000	     14.65524606	     10.93677793	     -2.88559755	     34.64226166	     89.95437384	      0.00000000	      0.00000000
      1.03000000	     17.39727679	     -4.81647817	      1.89150745	     -0.29368935	      0.94476466	      1.40242681	      4.29889095	      0.68800726	    -33.50722686	    -11.98306784	     -0.20914399	    -10.41615767	     13.47310792	     -9.32276616	    -25.85876944	      2.71593786	     15.34223324	    -13.71367016	     -0.23934870	     15.61591289	      0.41663977	     -5.61037412	    -24.94648662	      4.15923738	     -3.51467945	     -3.23063199	    -10.27899450	     -1.98025959	     17.44561146	     89.95437384	      0.00000000	      0.00000000	     14.80891953	     10.67290792	     -2.91206537	     35.02359160	     89.95437384	      0.00000000	      0.00000000
      1.04000000	     17.28175614	     -4.76785741	      1.94380371	     -0.28818455	      0.94395113	      1.40242642	      4.62913588	      0.66763976	    -33.44477218	    -11.95113234	     -0.20858661	    -10.48432072	     13.34293923	     -9.27901349	    -26.07841771	      2.71387577	     15.27470896	    -13.79225684	     -0.24072029	     15.83419588	      0.30979588	     -5.61488800	    -24.80793550	      4.22875673	     -3.55863228	     -3.24970258	    -10.32435425	     -1.99455259	     17.31990004	     89.95437384	      0.00000000	      0.00000000	     14.85245794	     10.46004351	     -2.93477259	     35.30567469	     89.95437384	      0.00000000	      0.00000000
      1.05000000	     17.29635098	     -4.82872475	      2.13493812	     -0.28275381	      0.94333950	      1.40251811	      4.85490214	      0.74520676	    -33.22564798	    -12.19734649	     -0.21288386	    -10.69193625	     13.14285342	     -9.25160845	    -26.37056987	      2.89946997	     14.97620525	    -13.96500789	     -0.24373537	     16.09030410	      0.16142537	     -5.64564312	    -24.82767675	      4.44657244	     -3.69841635	     -3.15585049	    -10.32500058	     -2.29904214	     17.20249123	     89.95437384	      0.00000000	      0.00000000	     14.81263233	     10.32312870	     -2.86818666	     35.79561652	     89.95437384	      0.00000000	      0.00000000
      1.06000000	     17.09444160	     -4.67453219	      2.26405327	     -0.27740156	      0.94238385	      1.40249774	      5.32808335	      0.57711154	    -32.69743232	    -12.59189036	     -0.21976995	    -10.63323496	     12.70391662	     -9.08315697	    -26.26527917	      2.86756087	     14.78979132	    -14.41719234	     -0.25162748	     15.81058665	      0.16847623	     -5.55267077	    -24.63810045	      4.44504010	     -3.73725146	     -3.40206913	    -10.34188838	     -2.27208860	     17.39556988	     89.95437384	      0.00000000	      0.00000000	     14.84796947	     10.08532807	     -2.86704020	     36.17066117	     89.95437384	      0.00000000	      0.00000000
      1.07000000	     17.18160256	     -4.72803014	      2.45840963	     -0.27181721	      0.94196419	      1.40248136	      5.46417428	      0.59461229	    -32.43622440	    -13.16772079	     -0.22982008	    -10.82868543	     12.23072874	     -8.99757034	    -26.65750036	      3.04030202	     14.58288874	    -14.57190060	     -0.25432764	     16.15728667	      0.15859005	     -5.55913373	    -24.73390344	      4.67804785	     -3.87819071	     -3.25512175	    -10.37276601	     -2.42490954	     17.21794432	     89.95437384	      0.00000000	      0.00000000	     14.80416203	      9.89789074	     -2.83522568	     36.49310259	     89.95437384	      0.00000000	      0.00000000
      1.08000000	     16.96288837	     -4.57627431	      2.60690162	     -0.26624417	      0.94105486	      1.40251045	      5.86145622	      0.43486257	    -31.82431570	    -13.61975492	     -0.23770957	    -10.84721175	     11.81731567	     -8.82116953	    -26.54840704	      3.03061206	     14.33760199	    -15.02244924	     -0.26219120	     15.88187315	      0.16401683	     -5.46917722	    -24.51938504	      4.68554692	     -3.92230896	     -3.50073869	    -10.39402407	     -2.38769627	     17.41685329	     89.95437384	      0.00000000	      0.00000000	     14.76529426	      9.65915306	     -2.83207834	     36.85606197	     89.95437384	      0.00000000	      0.00000000
      1.09000000	     17.10196209	     -4.65631578	      2.93393940	     -0.26055647	      0.94085653	      1.40243566	      5.73719377	      0.55520521	    -31.44271790	    -13.90650765	     -0.24271435	    -11.93450751	     11.24338148	     -8.77828495	    -27.06149142	      3.20385766	     13.54083620	    -14.99776671	     -0.26176041	     16.13461325	      0.71927784	     -5.62112008	    -24.67826738	      5.01080531	     -4.23909123	     -3.31603733	    -10.43672382	     -2.11685183	     17.21087622	     89.95437384	      0.00000000	      0.00000000	     14.50857955	      9.51118006	     -2.56285933	     37.49365130	     89.95437384	      0.00000000	      0.00000000
